<?xml version="1.0" encoding="utf-8"?>
<!-- Generator: Adobe Illustrator 17.0.1, SVG Export Plug-In . SVG Version: 6.00 Build 0)  -->
<!DOCTYPE svg PUBLIC "-//W3C//DTD SVG 1.1//EN" "http://www.w3.org/Graphics/SVG/1.1/DTD/svg11.dtd">
<svg version="1.1" id="Layer_1" xmlns="http://www.w3.org/2000/svg" xmlns:xlink="http://www.w3.org/1999/xlink" x="0px" y="0px"
	 width="420px" height="420px" viewBox="0 0 420 420" enable-background="new 0 0 420 420" xml:space="preserve">
<g opacity="0.1">
	<path fill="#006666" d="M183.468,376.28L99.054,244.224l-16.649,75.659C108.341,350.077,144.058,369.981,183.468,376.28z"/>
	<path fill="#006666" d="M197.48,377.934c4.22,0.317,8.49,0.478,12.709,0.478c32.089,0,63.39-9.168,90.518-26.512
		c2.614-1.672,5.291-3.508,8.105-5.563l-153.064-33.69L197.48,377.934z"/>
	<path fill="#006666" d="M42.063,197.48c-2.76,36.578,6.232,72.253,26.032,103.23c1.682,2.628,3.52,5.305,5.569,8.109
		l33.687-153.073L42.063,197.48z"/>
	<path fill="#006666" d="M100.12,82.4c-30.193,25.937-50.102,61.656-56.404,101.069l132.064-84.418L100.12,82.4z"/>
	<path fill="#006666" d="M222.518,42.063c-4.217-0.316-8.484-0.478-12.701-0.478c-32.089,0-63.391,9.167-90.523,26.511
		c-2.613,1.67-5.291,3.507-8.109,5.564l153.068,33.694L222.518,42.063z"/>
	<path fill="#006666" d="M236.528,43.72l84.417,132.063l16.652-75.666C311.657,69.918,275.937,50.012,236.528,43.72z"/>
	<path fill="#006666" d="M346.337,111.179l-33.688,153.074l65.283-41.733c2.763-36.583-6.229-72.257-26.03-103.23
		C350.224,116.663,348.388,113.985,346.337,111.179z"/>
	<path fill="#006666" d="M319.879,337.601c30.197-25.94,50.103-61.658,56.401-101.069l-132.062,84.413L319.879,337.601z"/>
	<path fill="#006666" d="M360.443,346.387l-13.624-24.773c-2.667-6.767,1.14-16.714,4.127-22.846
		c10.299-16.343,17.514-34.152,21.588-52.565c2.254-6.447,6.565-15.928,13.137-18.783l27.148-7.885v-19.474l-27.148-7.886
		c-7.023-3.051-11.47-13.677-13.574-20.071c-4.098-17.495-11.077-34.496-20.989-50.266c-3.032-6.02-7.368-16.635-4.57-23.736
		l13.622-24.774l-13.77-13.769l-24.773,13.623c-8.72,3.436-22.735-3.885-27.037-6.338c-0.429-0.252-0.854-0.509-1.284-0.757
		c-0.005-0.003-0.017-0.011-0.017-0.011l-0.001,0.001c-12.909-7.441-26.643-13.009-40.791-16.714l-0.001-0.019
		c0,0-0.379-0.088-1.029-0.261c-4.211-1.117-20.171-5.877-24.032-14.756L219.54,7.18l-19.477,0.001l-7.882,27.149
		c-4.457,10.252-25.064,15.015-25.064,15.015v0.21c-14.02,3.752-27.669,9.38-40.568,16.911l-0.108-0.108
		c0,0-17.936,11.202-28.339,7.105l-24.77-13.625L59.561,73.61l13.622,24.771c4.1,10.4-7.105,28.34-7.105,28.34l0.18,0.181
		c-7.434,12.852-13.024,26.523-16.749,40.612h-0.161c0,0-4.764,20.605-15.016,25.061l-27.15,7.884l0.001,19.478l27.149,7.882
		c10.251,4.458,15.017,25.059,15.017,25.059l0.166,0.001c3.724,14.055,9.33,27.74,16.847,40.676l-0.003,0.003
		c0,0,0.037,0.059,0.096,0.153c0.225,0.387,0.451,0.773,0.678,1.159c2.461,4.314,9.766,18.313,6.332,27.027l-13.625,24.771
		l13.771,13.771l24.773-13.621c7.922-3.123,20.212,2.631,25.623,5.55c15.179,9.21,31.568,15.8,48.49,19.728
		c6.395,2.104,17.025,6.549,20.082,13.572l7.884,27.152l19.475,0.001l7.881-27.149c3.006-6.912,13.341-11.326,19.763-13.471
		c18.104-4.156,35.69-11.389,51.944-21.766c6.161-2.949,15.777-6.496,22.371-3.898l24.774,13.623L360.443,346.387z M233.443,358.159
		c-0.117,0.01-0.221,0.01-0.351,0.029c-3.904,0.599-8.945-0.743-13.855-5.031c-3.835-3.345-7.359-3.734-8.671-3.752l0.003-0.001
		l-0.068-0.001c-0.032-0.001-0.061,0-0.093,0h-0.809c-0.011,0-0.018,0-0.029,0h-0.232l0.011,0.004
		c-1.399,0.042-4.827,0.506-8.547,3.752c-4.91,4.287-9.951,5.628-13.857,5.029c-0.153-0.023-0.28-0.026-0.413-0.035
		c-30.243-4.765-59.31-18.791-82.611-42.1c-23.416-23.424-37.458-52.662-42.146-83.066c-0.548-3.885,0.803-8.862,5.04-13.715
		c3.348-3.836,3.737-7.359,3.755-8.67l0.002,0.002l-0.001-0.066c0.001-0.035,0-0.064,0-0.096l0.001-0.809
		c-0.001-0.008,0-0.018,0-0.027v-0.233l-0.006,0.012c-0.04-1.401-0.506-4.829-3.75-8.548c-4.287-4.91-5.627-9.952-5.031-13.856
		c0.005-0.027,0.002-0.046,0.006-0.072c4.709-30.378,18.756-59.589,42.16-82.987c23.311-23.305,52.383-37.324,82.629-42.079
		c0.092-0.009,0.167-0.007,0.268-0.022c3.904-0.598,8.946,0.743,13.856,5.03c3.833,3.346,7.358,3.735,8.67,3.755l-0.003,0.001
		l0.068-0.001c0.033,0,0.063,0,0.094,0l0.809,0.001c0.01,0.001,0.018,0,0.027,0h0.233l-0.011-0.005
		c1.4-0.04,4.828-0.506,8.546-3.751c4.912-4.286,9.953-5.628,13.858-5.028c0.231,0.035,0.436,0.049,0.62,0.051
		c30.192,4.787,59.203,18.807,82.469,42.078c23.206,23.214,37.208,52.142,42.019,82.252c-0.001,0.199,0.013,0.421,0.052,0.678
		c0.599,3.904-0.742,8.948-5.029,13.858c-3.346,3.833-3.735,7.358-3.754,8.669v-0.002l-0.001,0.066c0,0.033,0,0.064,0,0.094
		l-0.001,0.811c0,0.009,0.001,0.016,0.001,0.025l-0.002,0.234l0.006-0.011c0.04,1.401,0.506,4.828,3.752,8.546
		c4.286,4.912,5.626,9.951,5.028,13.857c-0.044,0.284-0.053,0.521-0.046,0.734c-4.809,30.139-18.822,59.092-42.056,82.319
		C292.746,339.381,263.682,353.399,233.443,358.159z"/>
</g>
</svg>
